<svg version="1.1" id="Layer_1" xmlns:x="ns_extend;" xmlns:i="ns_ai;" xmlns:graph="ns_graphs;" xmlns="http://www.w3.org/2000/svg" xmlns:xlink="http://www.w3.org/1999/xlink" x="0px" y="0px" viewBox="0 0 1002.4 223.8" style="enable-background:new 0 0 1002.4 223.8;" xml:space="preserve">
 <style type="text/css">
  .st0{fill:#422466;}
 </style>
 <metadata>
  <sfw xmlns="ns_sfw;">
   <slices>
   </slices>
   <sliceSourceBounds bottomLeftOrigin="true" height="223.8" width="1002.4" x="248.8" y="638.1">
   </sliceSourceBounds>
  </sfw>
 </metadata>
 <g>
  <path class="st0" d="M593.9,69.3v152h-44.1v-22.2c-4.5,7.7-11,14-18.9,18.3c-8.1,4.3-17.2,6.4-26.4,6.3c-19,0-33.2-5.3-42.6-15.9
		s-14.1-26.6-14.1-48V69.3h45.3v91.4c0,18.4,7.9,27.6,23.7,27.6c9.4,0,17-3.2,22.8-9.6s8.7-14.8,8.7-25.2V69.3H593.9z">
  </path>
  <path class="st0" d="M766.8,0v221.3h-44.7v-22.5c-4.6,7.8-11.4,14.2-19.5,18.3c-8.8,4.5-18.6,6.8-28.5,6.6
		c-12.3,0.2-24.4-3.3-34.8-10c-10.2-6.7-18.1-16.1-23.8-28.2s-8.5-26-8.5-41.5c0-15.6,2.8-29.3,8.5-41.2s13.6-21.1,23.7-27.6
		c10.1-6.5,21.7-9.7,34.9-9.7c9.7-0.1,19.2,2.1,27.9,6.4c8,4,14.8,10.2,19.5,17.8V0H766.8z M713.1,177.7c6-7.7,9-18.7,9-33.1
		c0-14.2-3-25.1-9.2-32.8c-6.1-7.7-14.6-11.5-25.6-11.5c-11.2,0-19.9,3.8-26.1,11.4c-6.2,7.6-9.3,18.4-9.3,32.4
		c0,14.4,3.1,25.5,9.3,33.4s14.9,11.8,26.1,11.8C698.6,189.2,707.1,185.4,713.1,177.7L713.1,177.7z">
  </path>
  <path class="st0" d="M939.7,69.3v152H895v-22.5c-4.6,7.8-11.4,14.2-19.5,18.3c-8.8,4.5-18.6,6.8-28.5,6.6
		c-13.2,0-24.8-3.2-34.9-9.6c-10.1-6.4-18-15.5-23.7-27.4c-5.7-11.9-8.5-25.6-8.5-41.2s2.9-29.5,8.5-41.7
		c5.7-12.2,13.6-21.6,23.8-28.3c10.3-6.7,22.5-10.2,34.8-10c9.9-0.2,19.7,2.2,28.5,6.9c8.1,4.3,14.8,10.7,19.5,18.6V69.3H939.7z
		 M886,177.9c6-7.6,9-18.6,9-33s-3-25.5-9-33.1c-6-7.7-14.6-11.5-25.8-11.5s-19.9,4-26.1,12c-6.2,8-9.3,19.1-9.3,33.3
		c0,14.2,3.1,25,9.2,32.5c6.1,7.5,14.8,11.2,26.2,11.2C871.4,189.2,880,185.4,886,177.9z">
  </path>
  <path class="st0" d="M438.8,223.5h-56.2l-60.4-68.9v68.9h-45.9V0h45.9v135.7l57.7-65.9h55l-65.3,73.8L438.8,223.5z">
  </path>
  <polygon class="st0" points="150.7,223.5 62.8,122.3 110.8,223.5 77.5,223.5 28.5,120.3 48.9,223.5 28.4,223.5 8,120.1 8,223.5 
		0,223.5 0,0 8,0 8,111.5 28.7,0 49.1,0 28.3,112 78.3,0 111.2,0 61.5,111.6 151.8,0 203.5,0 110,115.5 203.9,223.5 	">
  </polygon>
  <circle class="st0" cx="977.6" cy="196.3" r="24.8">
  </circle>
 </g>
</svg>